# xmcd
#
# Track frame offsets:
#	150
#	12575
#	24521
#	38581
#	51027
#	62837
#	74017
#	85727
#	98073
#	109470
#	122293
#	135039
#	147816
#	160431
#	172849
#	187146
#	200037
#	213575
#	227346
#	241016
#
# Disc length: 3400 seconds
#
# Revision: 0
# Processed by: cddbd v1.5.1PL2 Copyright (c) Steve Scherf et al.
# Submitted via: dBpowerAMP V4.0
#
DISCID=0e0d4614
DTITLE=Buddy Jones - Police Officer and Honky Tonk Singer
DYEAR=2002
DGENRE=Western Swing
TTITLE0=Every Day Blues
TTITLE1=I Wish I'd Never Met You
TTITLE2=She's Selling What She Used To Give Away
TTITLE3=You've Got Just What It Takes
TTITLE4=Don't Ever Leave Me Again
TTITLE5=Gonna Change My Business All Around
TTITLE6=Mean Hangover Blues
TTITLE7=I'm Gonna Get Me A Honky Tonk Baby
TTITLE8=She's A Hum Dum Dinger
TTITLE9=Mean Old Sixty Five Blues
TTITLE10=What Is Life Lived Alone
TTITLE11=Dear Old Sunny South By The Sea
TTITLE12=Shreveport County Jail Blues
TTITLE13=Red River Blues (with Jimmie Davis)
TTITLE14=Butcher Man Blues
TTITLE15=Carry The Good Work On
TTITLE16=Action Speaks Louder Than Words
TTITLE17=Ease My Troubled Mind
TTITLE18=Ragged But Right
TTITLE19=I'll Get Mine Bye And Bye No. 2
EXTD=
EXTT0=
EXTT1=
EXTT2=
EXTT3=
EXTT4=
EXTT5=
EXTT6=
EXTT7=
EXTT8=
EXTT9=
EXTT10=
EXTT11=
EXTT12=
EXTT13=
EXTT14=
EXTT15=
EXTT16=
EXTT17=
EXTT18=
EXTT19=
PLAYORDER=
